# AST/ASF file generated using VICON BodyLanguage
# -----------------------------------------------
:version 1.10
:name VICON
:units
  mass 1.0
  length 0.45
  angle deg
:documentation
   .ast/.asf automatically generated from VICON data using
   VICON BodyBuilder and BodyLanguage model FoxedUp or BRILLIANT.MOD
:root
   order TX TY TZ RX RY RZ
   axis XYZ
   position 0 0 0  
   orientation 0 0 0 
:bonedata
  begin
     id 1 
     name lhipjoint
     direction 0.710087 -0.641647 0.289942 
     length 2.79038 
     axis 0 0 0  XYZ
  end
  begin
     id 2 
     name lfemur
     direction 0.34202 -0.939693 0  
     length 7.2706  
     axis 0 0 20  XYZ
    dof rx ry rz
    limits (-160.0 20.0)
           (-70.0 70.0)
           (-60.0 70.0)
  end
  begin
     id 3 
     name ltibia
     direction 0.34202 -0.939693 0   
     length 7.86328   
     axis 0 0 20   XYZ
    dof rx
    limits (-10.0 170.0)
  end
  begin
     id 4 
     name lfoot
     direction 0.0541246 -0.148706 0.987399   
     length 2.37542   
     axis -90 7.62852e-016 20   XYZ
    dof rx rz
    limits (-45.0 90.0)
           (-70.0 20.0)
  end
  begin
     id 5 
     name ltoes
     direction 1.53554e-011 -4.21866e-011 1   
     length 1.19593   
     axis -90 7.62852e-016 20   XYZ
    dof rx
    limits (-90.0 20.0)
  end
  begin
     id 6 
     name rhipjoint
     direction -0.675762 -0.671724 0.303533   
     length 2.66544  
     axis 0 0 0  XYZ 
  end
  begin
     id 7 
     name rfemur
     direction -0.34202 -0.939693 0   
     length 8.11844   
     axis 0 0 -20   XYZ
    dof rx ry rz
    limits (-160.0 20.0)
           (-70.0 70.0)
           (-70.0 60.0)
  end
  begin
     id 8 
     name rtibia
     direction -0.34202 -0.939693 0   
     length 7.97082   
     axis 0 0 -20   XYZ
    dof rx
    limits (-10.0 170.0)
 end
 begin
     id 9 
     name rfoot
     direction -0.0726228 -0.199474 0.977208   
     length 2.19677  
     axis -90 -7.62852e-016 -20   XYZ
    dof rx rz
    limits (-45.0 90.0)
           (-20.0 70.0)
  end
  begin
     id 10 
     name rtoes
     direction -1.53508e-011 -4.21913e-011 1   
     length 1.10438   
     axis -90 -7.62852e-016 -20   XYZ
    dof rx
    limits (-90.0 20.0)
  end
  begin
     id 11 
     name lowerback
     direction -0.00404436 0.999673 -0.0252643   
     length 2.03972   
     axis 0 0 0   XYZ
    dof rx ry rz
    limits (-20.0 45.0)
           (-30.0 30.0)
           (-30.0 30.0)
  end
  begin
     id 12 
     name upperback
     direction 0.00744643 0.999969 0.00242763   
     length 2.04273   
     axis 0 0 0   XYZ
    dof rx ry rz
    limits (-20.0 45.0)
           (-30.0 30.0)
           (-30.0 30.0)
  end
  begin
     id 13 
     name thorax
     direction 0.00846113 0.999862 0.0143204   
     length 2.03752   
     axis 0 0 0   XYZ
    dof rx ry rz
    limits (-20.0 45.0)
           (-30.0 30.0)
           (-30.0 30.0)
  end
  begin
     id 14 
     name lowerneck
     direction 0.0328213 0.990857 0.130862   
     length 1.37497   
     axis 0 0 0   XYZ
    dof rx ry rz
    limits (-20.0 45.0)
           (-30.0 30.0)
           (-30.0 30.0)
  end
  begin
     id 15 
     name upperneck
     direction -0.0302832 0.999496 0.00956452   
     length 1.35926   
     axis 0 0 0   XYZ
    dof rx ry rz
    limits (-20.0 45.0)
           (-30.0 30.0)
           (-30.0 30.0)
  end
  begin
     id 16
     name head
     direction -0.0130455 0.999856 -0.0108809  
     length 1.44454  
     axis 0 0 0   XYZ
    dof rx ry rz
    limits (-20.0 45.0)
           (-30.0 30.0)
           (-30.0 30.0)
  end
  begin
     id 17 
     name lclavicle
     direction 0.952957 0.278766 0.119006  
     length 3.10112  
     axis 0 0 0   XYZ
    dof ry rz
    limits (-20.0 10.0)
           (0.0 20.0)
  end
  begin
     id 18 
     name lhumerus
     direction 1 -4.48972e-011 -1.63238e-028   
     length 5.82845   
     axis -180 -30 -90   XYZ
    dof rx ry rz
    limits (-60.0 90.0)
           (-90.0 90.0)
           (-90.0 90.0)
  end
  begin
     id 19
     name lradius
     direction 1 -4.48959e-011 1.45401e-026   
     length 3.49691   
     axis -180 -30 -90   XYZ
    dof rx
    limits (-10.0 170.0)
  end
  begin
     id 20
     name lwrist
     direction 1 -4.48945e-011 2.98015e-026   
     length 1.74845   
     axis -1.7599e-014 90 90   XYZ
    dof ry
    limits (-180.0 0.0)
 end
  begin
     id 21 
     name lhand
     direction 1 -4.4902e-011 5.9603e-026   
     length 0.674998   
     axis -3.80318e-014 90 90   XYZ
    dof rx rz
    limits (-90.0 90.0)
           (-45.0 45.0)
  end
  begin
     id 22 
     name lfingers
     direction 1 -4.48979e-011 1.19206e-025   
     length 0.544201   
     axis -7.60636e-014 90 90   XYZ
    dof rx
    limits (0.0 90.0)
  end
  begin
     id 23
     name lthumb
     direction 0.707107 -6.34941e-011 0.707107   
     length 0.781367   
     axis -90 45 2.85299e-015   XYZ
    dof rx rz
    limits (-45.0 45.0)
           (-45.0 45.0)
  end
  begin
     id 24 
     name rclavicle
     direction -0.967632 0.241887 0.0719654   
     length 3.53012  
     axis 0 0 0   XYZ 
    dof ry rz
    limits (-10.0 20.0)
           (-20.0 0.0)
  end
  begin
     id 25 
     name rhumerus
     direction -1 -4.4897e-011 6.87619e-028  
     length 5.45859   
     axis -180 30 90   XYZ
    dof rx ry rz
    limits (-90.0 60.0)
           (-90.0 90.0)
           (-90.0 90.0)
  end
  begin
     id 26 
     name rradius
     direction -1 -4.48967e-011 1.68055e-026   
     length 3.58491   
     axis -180 30 90   XYZ
    dof rx
    limits (-10.0 170.0)
  end
  begin
     id 27 
     name rwrist
     direction -1 -4.48976e-011 2.98015e-026   
     length 1.79245   
     axis -1.7599e-014 -90 -90   XYZ
    dof ry
    limits (-180.0 0.0)
  end
  begin
     id 28
     name rhand
     direction -1 -4.48996e-011 5.9603e-026   
     length 0.683735   
     axis -3.80318e-014 -90 -90   XYZ
    dof rx rz
    limits (-90.0 90.0)
           (-45.0 45.0)
  end
  begin
     id 29
     name rfingers
     direction -1 -4.48924e-011 1.19206e-025   
     length 0.551245   
     axis -7.60636e-014 -90 -90   XYZ
    dof rx
    limits (0.0 90.0)
  end
  begin
     id 30
     name rthumb
     direction -0.707107 -6.3492e-011 0.707107   
     length 0.791481   
     axis -90 -45 -2.85299e-015   XYZ
    dof rx rz
    limits (-45.0 45.0)
           (-45.0 45.0)
  end
:hierarchy
  begin
    root lhipjoint rhipjoint lowerback
    lhipjoint lfemur
    lfemur ltibia
    ltibia lfoot
    lfoot ltoes
    rhipjoint rfemur
    rfemur rtibia
    rtibia rfoot
    rfoot rtoes
    lowerback upperback
    upperback thorax
    thorax lowerneck lclavicle rclavicle
    lowerneck upperneck
    upperneck head
    lclavicle lhumerus
    lhumerus lradius
    lradius lwrist
    lwrist lhand lthumb
    lhand lfingers
    rclavicle rhumerus
    rhumerus rradius
    rradius rwrist
    rwrist rhand rthumb
    rhand rfingers
  end

#!OML:ASF F:\VICON\USERDATA\INSTALL\rory3\rory3.ASF
:FULLY-SPECIFIED
:DEGREES
121
root -4.83614 17.5608 13.7156 29.0747 -91.6293 -27.5412
lowerback 6.93401 -1.35615 -2.07738
upperback 0.195394 -1.92076 1.84368
thorax -3.55461 -0.913276 3.26592
lowerneck -11.4629 -0.756774 -4.91593
upperneck 4.13647 -0.0266632 -5.49024
head 3.38573 -0.405419 -0.952967
rclavicle -9.34288e-015 8.34896e-015
rhumerus -12.4798 -5.78602 -41.0264
rradius 47.4349
rwrist -29.0206
rhand -20.8518 56.1901
rfingers 7.12502
rthumb 5.51747 26.2819
lclavicle -9.34288e-015 8.34896e-015
lhumerus 35.7456 36.9779 8.04284
lradius 65.2713
lwrist 56.5882
lhand 150.192 -120.839
lfingers 7.12502
lthumb -183.132 -450.882
rfemur -18.7244 11.4668 1.32511
rtibia 50.7747
rfoot -18.2795 -8.39927
rtoes -17.1846
lfemur -1.04164 -5.53471 -10.9012
ltibia 23.5674
lfoot -11.8329 13.994
ltoes -25.204
122
root -4.85876 17.565 13.5204 28.2958 -91.6306 -26.8271
lowerback 7.00763 -1.51159 -2.1948
upperback 0.0252873 -2.13809 1.77445
thorax -3.75543 -1.01292 3.28756
lowerneck -13.0431 -0.761732 -6.04173
upperneck 5.42997 0.246364 -3.87688
head 4.15717 -0.273052 -0.211723
rclavicle 2.01269e-014 -1.19271e-014
rhumerus -10.7809 -6.25572 -39.4294
rradius 47.5321
rwrist -28.214
rhand -21.0992 56.1055
rfingers 7.12502
rthumb 5.27856 26.1912
lclavicle 2.01269e-014 -1.19271e-014
lhumerus 36.8839 36.8687 8.56948
lradius 63.9137
lwrist 55.293
lhand 151.247 -121.751
lfingers 7.12502
lthumb -182.113 -451.781
rfemur -17.8801 10.8781 2.13253
rtibia 50.0435
rfoot -20.1203 -7.45816
rtoes -17.7181
lfemur -0.87693 -6.58764 -10.4666
ltibia 23.5127
lfoot -10.7298 15.4283
ltoes -27.6868
123
root -4.88284 17.5867 13.3096 22.3982 -91.6084 -20.8913
lowerback 6.80382 -1.63534 -2.35777
upperback -0.0764409 -2.31439 1.66158
thorax -3.73219 -1.09654 3.27337
lowerneck -13.587 -0.710419 -6.22809
upperneck 6.05437 0.353912 -3.06021
head 4.01377 -0.197564 0.0751596
rclavicle -5.51627e-015 -5.1684e-015
rhumerus -8.98261 -6.97694 -37.8665
rradius 47.8066
rwrist -27.4693
rhand -21.023 55.8007
rfingers 7.12502
rthumb 5.35213 25.8883
lclavicle -5.51627e-015 -5.1684e-015
lhumerus 36.6516 37.0548 7.60226
lradius 64.2219
lwrist 56.4192
lhand 150.632 -120.828
lfingers 7.12502
lthumb -182.707 -450.866
rfemur -17.2093 10.3909 3.11427
rtibia 49.2125
rfoot -20.9562 -7.18998
rtoes -22.5414
lfemur -0.855952 -7.54095 -9.8152
ltibia 23.5338
lfoot -9.01525 16.7883
ltoes -30.8545
124
root -4.90989 17.6175 13.0885 13.7197 -91.7235 -12.1739
lowerback 6.63072 -1.66257 -2.59028
upperback -0.219116 -2.36765 1.54348
thorax -3.7749 -1.11575 3.28324
lowerneck -13.9333 -0.567873 -6.41991
upperneck 6.25009 0.560642 -2.35135
head 4.12189 -0.0631293 0.339154
rclavicle 1.96548e-014 8.34896e-015
rhumerus -7.3432 -7.74812 -36.0631
rradius 48.3277
rwrist -26.9798
rhand -20.8457 55.9899
rfingers 7.12502
rthumb 5.52337 26.0819
lclavicle 1.96548e-014 8.34896e-015
lhumerus 37.4722 37.0185 7.50436
lradius 63.7951
lwrist 56.6003
lhand 150.594 -120.191
lfingers 7.12502
lthumb -182.744 -450.229
rfemur -16.615 9.92712 4.12463
rtibia 48.3165
rfoot -21.1114 -7.52128
rtoes -29.8775
lfemur -0.767705 -8.56472 -9.06619
ltibia 23.5737
lfoot -9.41179 17.3028
ltoes -26.3727
125
root -4.94436 17.6743 12.8736 -1.12419 -91.9276 2.76015
lowerback 6.33611 -1.72082 -2.30741
upperback -0.331343 -2.42175 1.39013
thorax -3.7396 -1.14798 2.96082
lowerneck -14.0138 -0.0397088 -5.57107
upperneck 6.10329 1.12744 -2.44426
head 4.08227 0.238589 0.218358
rclavicle -3.89245e-014 9.74045e-015
rhumerus -5.49172 -8.99906 -34.4949
rradius 48.8313
rwrist -26.1295
rhand -20.6605 56.7086
rfingers 7.12502
rthumb 5.70217 26.8053
lclavicle -3.89245e-014 9.74045e-015
lhumerus 39.4749 36.9577 8.32478
lradius 62.5892
lwrist 55.9609
lhand 150.555 -120.144
lfingers 7.12502
lthumb -182.782 -450.182
rfemur -16.0835 9.91599 5.29058
rtibia 47.3941
rfoot -21.3461 -6.97264
rtoes -31.2731
lfemur -0.713711 -9.41333 -8.08165
ltibia 23.5859
lfoot -9.07755 18.191
ltoes -22.2527
126
root -4.98147 17.7329 12.6658 -5.78874 -92.456 7.70389
lowerback 5.69299 -1.69233 -2.26429
upperback -0.454423 -2.37179 1.24457
thorax -3.51649 -1.12706 2.75911
lowerneck -14.0797 0.539528 -4.59788
upperneck 5.90859 1.74785 -2.68846
head 4.03309 0.560544 0.0342944
rclavicle -1.34552e-014 5.66536e-015
rhumerus -3.44766 -10.1336 -32.6037
rradius 49.4667
rwrist -25.7727
rhand -20.3902 56.9524
rfingers 7.12502
rthumb 5.96309 27.0563
lclavicle -1.34552e-014 5.66536e-015
lhumerus 40.2687 37.176 8.13211
lradius 61.9676
lwrist 56.3947
lhand 150.798 -120.236
lfingers 7.12502
lthumb -182.547 -450.271
rfemur -15.9407 10.2776 6.10127
rtibia 46.5685
rfoot -21.2574 -6.22192
rtoes -29.7888
lfemur -0.777936 -9.88584 -7.39278
ltibia 23.5771
lfoot -7.37128 19.4904
ltoes -21.5243
127
root -5.01201 17.8006 12.4648 -4.30419 -93.0819 6.52547
lowerback 5.12122 -1.60744 -2.4767
upperback -0.540161 -2.26607 1.03442
thorax -3.29057 -1.07461 2.63324
lowerneck -14.5811 1.07812 -3.43393
upperneck 5.97537 2.33003 -3.16977
head 4.14771 0.840793 -0.253471
rclavicle -2.83486e-014 3.03147e-015
rhumerus -0.897865 -11.4878 -30.4889
rradius 49.6217
rwrist -25.3283
rhand -20.2921 57.1941
rfingers 7.12502
rthumb 6.05785 27.3007
lclavicle -2.83486e-014 3.03147e-015
lhumerus 41.471 37.6014 8.05547
lradius 60.7844
lwrist 56.1256
lhand 151.657 -120.641
lfingers 7.12502
lthumb -181.717 -450.668
rfemur -16.0376 10.7811 6.60828
rtibia 45.866
rfoot -20.8596 -5.92102
rtoes -28.6914
lfemur -0.926694 -10.0757 -6.99896
ltibia 23.67
lfoot -5.33988 20.5044
ltoes -21.2426
128
root -5.04015 17.8726 12.2835 -2.29879 -93.7003 5.00586
lowerback 4.66193 -1.53298 -2.40129
upperback -0.879718 -2.16401 0.684443
thorax -3.40561 -1.02213 2.21353
lowerneck -14.5534 1.51651 -2.19111
upperneck 5.95804 2.73011 -3.62936
head 4.16078 1.0435 -0.562773
rclavicle -2.58358e-014 3.8763e-015
rhumerus 1.23721 -12.5803 -28.389
rradius 50.1844
rwrist -25.6282
rhand -20.6248 57.1252
rfingers 7.12502
rthumb 5.73663 27.2229
lclavicle -2.58358e-014 3.8763e-015
lhumerus 43.1062 37.71 7.99855
lradius 59.2409
lwrist 55.4642
lhand 152.145 -120.913
lfingers 7.12502
lthumb -181.246 -450.937
rfemur -16.3913 10.9962 6.97833
rtibia 45.2342
rfoot -19.9156 -6.04979
rtoes -31.1458
lfemur -1.43079 -9.94948 -6.72623
ltibia 23.8569
lfoot -3.71314 21.0052
ltoes -18.7558
129
root -5.06402 17.9556 12.1248 3.05715 -94.1407 0.000714805
lowerback 4.305 -1.55613 -2.56086
upperback -1.08328 -2.21044 0.298754
thorax -3.42178 -1.04376 1.90062
lowerneck -14.9871 2.03009 -1.1862
upperneck 6.07659 3.27557 -3.92441
head 4.29181 1.31202 -0.767906
rclavicle 1.50331e-014 -1.2921e-015
rhumerus 3.86942 -14.4401 -26.5626
rradius 50.4154
rwrist -24.9196
rhand -21.3356 57.4791
rfingers 7.12502
rthumb 5.05033 27.5592
lclavicle 1.50331e-014 -1.2921e-015
lhumerus 44.1158 38.0213 7.48132
lradius 58.4635
lwrist 55.0464
lhand 152.379 -120.427
lfingers 7.12502
lthumb -181.02 -450.45
rfemur -16.619 10.6955 7.02255
rtibia 44.6942
rfoot -18.9558 -6.16462
rtoes -33.5778
lfemur -1.9055 -9.58971 -6.90081
ltibia 23.9765
lfoot -3.7618 20.7221
ltoes -12.9346
130
root -5.08773 18.0374 11.9926 2.50879 -94.3427 0.73897
lowerback 4.03426 -1.58595 -2.06967
upperback -1.26979 -2.22868 0.0319173
thorax -3.48959 -1.06412 1.34703
lowerneck -15.2753 2.32627 -0.9647
upperneck 6.18806 3.64253 -3.94494
head 4.38156 1.49074 -0.776892
rclavicle 4.35898e-014 3.57812e-015
rhumerus 6.38481 -16.3117 -24.4977
rradius 50.4977
rwrist -24.5635
rhand -21.788 57.4747
rfingers 7.12502
rthumb 4.61349 27.5449
lclavicle 4.35898e-014 3.57812e-015
lhumerus 45.7137 38.2823 7.76123
lradius 57.8602
lwrist 54.7932
lhand 153.022 -120.354
lfingers 7.12502
lthumb -180.399 -450.375
rfemur -16.5521 10.3906 7.49429
rtibia 44.1918
rfoot -17.9117 -6.56249
rtoes -36.6218
lfemur -2.2489 -9.40543 -6.71835
ltibia 23.9709
lfoot -3.85152 19.4284
ltoes -7.54265
131
root -5.10917 18.1176 11.8769 7.73413 -94.3664 -4.38275
lowerback 3.97314 -1.66614 -1.99096
upperback -1.46835 -2.34878 -0.348241
thorax -3.67518 -1.12757 0.922009
lowerneck -15.4558 2.55691 -0.63128
upperneck 6.20158 3.89056 -3.94608
head 4.42416 1.61904 -0.808102
rclavicle -1.60891e-014 -1.39149e-015
rhumerus 8.69987 -18.1474 -22.5024
rradius 50.7044
rwrist -25.0123
rhand -21.5923 57.0574
rfingers 7.12502
rthumb 4.80244 27.1318
lclavicle -1.60891e-014 -1.39149e-015
lhumerus 48.1901 38.2387 8.77223
lradius 56.6396
lwrist 53.5436
lhand 153.127 -120.387
lfingers 7.12502
lthumb -180.297 -450.408
rfemur -16.374 10.6515 7.4565
rtibia 43.7877
rfoot -17.3556 -6.73688
rtoes -37.2117
lfemur -2.70728 -9.34322 -7.17891
ltibia 23.7905
lfoot -2.59939 13.6959
ltoes -11.8818
132
root -5.13494 18.2017 11.7719 19.5223 -94.2441 -16.1559
lowerback 3.97744 -1.83895 -2.37906
upperback -1.63033 -2.62581 -0.798312
thorax -3.84209 -1.26076 0.698232
lowerneck -15.449 2.90276 0.212
upperneck 5.96617 4.21679 -4.36753
head 4.38285 1.77774 -1.04733
rclavicle 1.95306e-014 5.56597e-015
rhumerus 10.9273 -19.9977 -20.705
rradius 51.0937
rwrist -26.2062
rhand -21.9353 56.9554
rfingers 7.12502
rthumb 4.47123 27.0225
lclavicle 1.95306e-014 5.56597e-015
lhumerus 49.423 38.5843 8.53811
lradius 55.9887
lwrist 52.9912
lhand 153.332 -120.323
lfingers 7.12502
lthumb -180.1 -450.344
rfemur -16.0955 11.4113 6.99765
rtibia 43.5407
rfoot -17.1652 -7.42229
rtoes -36.9761
lfemur -3.24968 -9.38595 -8.3554
ltibia 23.3017
lfoot -1.03733 8.13312
ltoes -20.5919
133
root -5.15815 18.2892 11.6781 27.4792 -94.0716 -23.9754
lowerback 3.87286 -1.98524 -2.51283
upperback -1.68302 -2.842 -1.10456
thorax -3.8413 -1.37055 0.469814
lowerneck -15.5254 3.31016 1.22868
upperneck 5.26238 4.56247 -4.77587
head 4.21776 1.95454 -1.31058
rclavicle 1.09332e-014 1.51076e-014
rhumerus 13.0783 -22.2945 -19.0603
rradius 51.3742
rwrist -27.4719
rhand -22.3848 56.3921
rfingers 7.12502
rthumb 4.03723 26.4506
lclavicle 1.09332e-014 1.51076e-014
lhumerus 50.9537 39.1488 8.62663
lradius 55.6292
lwrist 52.5098
lhand 153.261 -120.211
lfingers 7.12502
lthumb -180.168 -450.231
rfemur -16.0372 12.652 6.9684
rtibia 43.5244
rfoot -17.5544 -8.03422
rtoes -32.6371
lfemur -3.70442 -9.72179 -9.20917
ltibia 22.3249
lfoot -0.355817 4.25914
ltoes -17.6639
134
root -5.18441 18.3826 11.6017 37.031 -93.9926 -33.239
lowerback 3.62779 -2.13309 -2.66022
upperback -1.8399 -3.06317 -1.45957
thorax -3.87271 -1.48353 0.195263
lowerneck -15.1187 3.79463 3.03058
upperneck 4.11343 4.88688 -5.70052
head 3.87819 2.11536 -1.86944
rclavicle 2.14812e-014 4.77083e-015
rhumerus 16.0617 -24.9802 -19.0167
rradius 50.9631
rwrist -26.8559
rhand -22.7091 55.7411
rfingers 7.12502
rthumb 3.72403 25.7939
lclavicle 2.14812e-014 4.77083e-015
lhumerus 52.5644 39.5296 8.83724
lradius 55.737
lwrist 52.4479
lhand 153.441 -120.174
lfingers 7.12502
lthumb -179.995 -450.194
rfemur -16.2783 13.4733 6.7059
rtibia 43.6885
rfoot -17.8259 -8.16391
rtoes -25.3426
lfemur -4.16656 -10.0057 -10.3279
ltibia 20.969
lfoot 0.848218 2.62506
ltoes -15.0195
